Coordinates
version=1
nRows=9
nColumns=63
inDegrees=yes

Units are S.I. units (second, meters, Newtons, ...)
If the header above contains a line with 'inDegrees', this indicates whether rotational values are in degrees (yes) or radians (no).

endheader
time	pelvis_tilt	pelvis_list	pelvis_rotation	pelvis_tx	pelvis_ty	pelvis_tz	hip_flexion_r	hip_adduction_r	hip_rotation_r	knee_angle_r	knee_angle_r_beta	ankle_angle_r	subtalar_angle_r	mtp_angle_r	hip_flexion_l	hip_adduction_l	hip_rotation_l	knee_angle_l	knee_angle_l_beta	ankle_angle_l	subtalar_angle_l	mtp_angle_l	L5_S1_Flex_Ext	L5_S1_Lat_Bending	L5_S1_axial_rotation	L4_L5_Flex_Ext	L4_L5_Lat_Bending	L4_L5_axial_rotation	L3_L4_Flex_Ext	L3_L4_Lat_Bending	L3_L4_axial_rotation	L2_L3_Flex_Ext	L2_L3_Lat_Bending	L2_L3_axial_rotation	L1_L2_Flex_Ext	L1_L2_Lat_Bending	L1_L2_axial_rotation	L1_T12_Flex_Ext	L1_T12_Lat_Bending	L1_T12_axial_rotation	Abs_r3	Abs_r2	Abs_r1	Abs_t1	Abs_t2	neck_flexion	neck_bending	neck_rotation	arm_flex_r	arm_add_r	arm_rot_r	elbow_flex_r	pro_sup_r	wrist_flex_r	wrist_dev_r	arm_flex_l	arm_add_l	arm_rot_l	elbow_flex_l	pro_sup_l	wrist_flex_l	wrist_dev_l
      1.14634146	      2.98959895	     -8.75937700	     91.58056180	      0.20844989	      0.88837644	      0.49814733	     -3.60500707	     -0.94292763	     -7.59456245	      1.00516087	      0.01754337	     21.31582656	     10.38789415	      0.00000000	     -1.00372492	     -1.01624348	      1.34509766	      0.45829633	      0.00799878	     25.15843711	      6.45237397	      0.00000000	     -0.02006582	     -0.26554381	     -0.88510572	     -0.03726423	     -0.35317327	     -0.94042483	     -0.03296613	     -0.64564322	     -0.94042483	     -0.02293322	     -0.64564322	     -0.77446751	     -0.01863312	     -0.54149694	     -0.71914840	     -0.01146561	     -0.41132736	     -0.66382929	     -0.14332812	     -3.00388471	     -4.92269250	      0.00000000	      0.00000000	     23.96853565	     -0.89629292	     -2.75012221	     -0.16322291	     -9.48793734	     17.47219863	    110.88109258	     76.98411095	     -3.90827650	      6.57804995	      0.15534316	    -30.74457016	     33.31607068	    117.12373360	     69.04202466	     -7.42074191	      3.80572611
      1.17073171	      3.08734768	     -9.60219394	     91.20623140	      0.20913437	      0.88707369	      0.49940660	     -2.44478963	     -0.87109884	     -6.84947805	      1.13265339	      0.01976853	     21.53358121	      9.87147453	      0.00000000	     -0.03689853	     -1.11257931	     -0.75497570	      0.49537807	      0.00864598	     25.70225055	      8.44128340	      0.00000000	     -0.04241102	     -0.28186731	     -0.82030696	     -0.07876151	     -0.37488353	     -0.87157615	     -0.06967707	     -0.68533219	     -0.87157615	     -0.04847156	     -0.68533219	     -0.71776859	     -0.03938288	     -0.57478383	     -0.66649941	     -0.02423366	     -0.43661247	     -0.61523022	     -0.30293769	     -3.18853942	     -4.56230122	      0.00000000	      0.00000000	     24.38020940	     -0.38531395	     -2.25517091	      0.17881389	     -9.13477021	     17.04982040	    112.31832844	     79.03673384	     -5.61584058	      6.12673505	     -0.76450199	    -31.31780099	     33.31033942	    118.66188393	     71.34887462	    -10.62953433	      3.18698245
      1.19512195	      3.30520901	    -10.66335266	     91.11407586	      0.20927056	      0.88507307	      0.50109907	     -1.04443367	     -0.68326842	     -6.64391425	      1.30208455	      0.02272566	     21.95926218	      9.89392608	      0.00000000	      1.15875034	     -1.30420647	     -1.18935628	      0.53603157	      0.00935552	     25.85230966	      8.29404716	      0.00000000	     -0.07377053	     -0.27879637	     -0.76870024	     -0.13699925	     -0.37079917	     -0.81674401	     -0.12119760	     -0.67786549	     -0.81674401	     -0.08431234	     -0.67786549	     -0.67261271	     -0.06850331	     -0.56852155	     -0.62456895	     -0.04215248	     -0.43185558	     -0.57652518	     -0.52693550	     -3.15380028	     -4.27528014	      0.00000000	      0.00000000	     24.22497411	      0.06293961	     -1.23144805	     -0.06402401	     -9.01414934	     16.47791969	    113.83292906	     79.61944425	     -5.78324356	      5.48693438	     -0.88373090	    -31.40792649	     32.68654222	    119.13851305	     71.96200643	    -10.94889543	      2.81847513
      1.21951220	      3.56904944	    -11.88085360	     90.95225564	      0.20914559	      0.88293978	      0.50385140	      0.65164947	     -0.48897248	     -6.38837404	      1.61002526	      0.02810024	     22.25290176	      9.94615563	      0.00000000	      2.55933745	     -1.52383823	     -1.58289679	      0.63129914	      0.01101825	     25.80341667	      8.07528137	      0.00000000	     -0.11215781	     -0.25704712	     -0.71251336	     -0.20828826	     -0.34187267	     -0.75704544	     -0.18426406	     -0.62498438	     -0.75704544	     -0.12818516	     -0.62498438	     -0.62344919	     -0.10414974	     -0.52417049	     -0.57891710	     -0.06408697	     -0.39816599	     -0.53438502	     -0.80113199	     -2.90776847	     -3.96278555	      0.00000000	      0.00000000	     23.00756420	      0.52615881	      0.77621036	     -0.07995974	     -9.42771336	     16.41340413	    114.92719380	     81.08044982	     -5.60796117	      4.67261778	      0.13975178	    -31.03847783	     32.56732513	    118.48476628	     72.75738897	    -11.35221594	      2.96215776
      1.24390244	      3.81707223	    -13.13877610	     90.72469842	      0.20944339	      0.88078928	      0.50702682	      2.44315222	     -0.28138894	     -6.21904277	      2.00637506	      0.03501785	     22.48686873	     10.03317325	      0.00000000	      4.05218987	     -1.77097909	     -1.78735447	      0.77714230	      0.01356369	     25.79343998	      7.80502237	      0.00000000	     -0.17304797	     -0.23633161	     -0.67117855	     -0.32136739	     -0.31432104	     -0.71312721	     -0.28430052	     -0.57461668	     -0.71312721	     -0.19777653	     -0.57461668	     -0.58728123	     -0.16069235	     -0.48192742	     -0.54533257	     -0.09887961	     -0.36607766	     -0.50338391	     -1.23606437	     -2.67343045	     -3.73289373	      0.00000000	      0.00000000	     21.29627411	      0.65955267	      2.84074941	      0.23898981	    -10.00078614	     16.94437283	    115.70142734	     82.82590643	     -5.28296218	      3.88831232	      1.82470304	    -30.56763731	     33.38653289	    116.92221077	     72.76271361	    -11.31658229	      3.93903381
      1.26829268	      4.01984853	    -14.55546650	     90.11047426	      0.21062127	      0.87866324	      0.51076965	      4.58936410	     -0.10221657	     -6.12555221	      2.66579636	      0.04652692	     22.85879900	     10.92223336	      0.00000000	      5.73325573	     -2.05625159	     -1.67137093	      0.93521939	      0.01632266	     25.81709005	      6.95964793	      0.00000000	     -0.23791195	     -0.22843501	     -0.46912714	     -0.44182628	     -0.30381856	     -0.49844759	     -0.39086554	     -0.55541687	     -0.49844759	     -0.27190957	     -0.55541687	     -0.41048625	     -0.22092504	     -0.46582466	     -0.38116580	     -0.13594289	     -0.35384582	     -0.35184535	     -1.69938127	     -2.58410248	     -2.60914441	      0.00000000	      0.00000000	     19.15125226	      0.47997505	      4.03744707	      0.58496451	    -10.54456331	     17.60490524	    116.31489349	     86.20561344	     -5.87354833	      2.64605274	      3.99762125	    -29.72631155	     35.07497891	    114.52333503	     69.35282941	     -9.34213365	      6.52035328
      1.29268293	      3.96651118	    -16.15108778	     89.66498353	      0.21162924	      0.87637692	      0.51494105	      6.99485610	     -0.17367904	     -6.23921579	      3.44436600	      0.06011553	     23.37816500	     11.64455212	      0.00000000	      7.71786839	     -2.10672454	     -1.16008621	      1.14827412	      0.02004116	     25.67979779	      6.17387854	      0.00000000	     -0.28520263	     -0.25364025	     -0.32739038	     -0.52964980	     -0.33734154	     -0.34785228	     -0.46855940	     -0.61670091	     -0.34785228	     -0.32595808	     -0.61670091	     -0.28646658	     -0.26483916	     -0.51722320	     -0.26600468	     -0.16296478	     -0.39288875	     -0.24554279	     -2.03717385	     -2.86922926	     -1.82084708	      0.00000000	      0.00000000	     16.27203933	      0.14132844	      4.59952380	      1.73737212	    -11.28629902	     19.60140694	    116.71147849	     86.58033027	     -7.17354510	      2.37692124	      5.38962122	    -28.72966878	     36.26339162	    111.91472976	     65.62882765	     -6.47052207	      7.98880020
      1.31707317	      3.78785211	    -17.82110208	     89.07385589	      0.21307390	      0.87377264	      0.52009394	      9.63762319	     -0.30633310	     -5.85712153	      4.36607608	      0.07620240	     24.06784502	     11.92717066	      0.00000000	      9.87025942	     -2.10983514	     -0.90124107	      1.40253638	      0.02447888	     25.77273108	      5.80320988	      0.00000000	     -0.31917006	     -0.30455433	     -0.14321670	     -0.59273072	     -0.40505726	     -0.15216774	     -0.52436449	     -0.74049340	     -0.15216774	     -0.36477946	     -0.74049340	     -0.12531461	     -0.29638132	     -0.62104719	     -0.11636357	     -0.18237377	     -0.47175466	     -0.10741252	     -2.27979981	     -3.44517948	     -0.79652831	      0.00000000	      0.00000000	     13.06957575	      0.24889272	      4.20378066	      3.31580566	    -11.92210775	     22.02316989	    117.04443060	     86.61074181	     -8.79199468	      2.30818436	      6.31257277	    -27.77733919	     37.19672220	    110.26735577	     63.66580971	     -5.22486294	      8.38563441
      1.34146341	      3.45118160	    -19.27284778	     88.46442896	      0.21461563	      0.87126572	      0.52633744	     12.13170475	     -0.54565545	     -5.40345839	      5.28445696	      0.09223117	     24.87226980	     12.15470973	      0.00000000	     11.89370170	     -1.99356757	     -0.87456851	      1.67857989	      0.02929675	     25.96246690	      5.68633198	      0.00000000	     -0.36272003	     -0.37910854	      0.01566236	     -0.67360736	     -0.50421436	      0.01664126	     -0.59591273	     -0.92176451	      0.01664126	     -0.41455272	     -0.92176451	      0.01370457	     -0.33682182	     -0.77307814	      0.01272567	     -0.20725822	     -0.58723913	      0.01174677	     -2.59087289	     -4.28855164	      0.08710937	      0.00000000	      0.00000000	      9.44373457	      0.89651994	      3.12057447	      4.96022064	    -12.78912179	     25.28555442	    117.27934182	     86.19399056	    -10.34990613	      2.23779456	      6.56303199	    -26.98358920	     37.44484207	    109.63101930	     62.71776387	     -4.26638794	      7.89131123
